<svg id="visual" viewBox="0 0 900 600" width="900" height="600" xmlns="http://www.w3.org/2000/svg" xmlns:xlink="http://www.w3.org/1999/xlink" version="1.1"><g stroke-width="1" stroke-linejoin="bevel"><path d="M432 272L503 175L368 208Z" fill="#780a10" stroke="#780a10"></path><path d="M367 71L310 212L368 208Z" fill="#3e090c" stroke="#3e090c"></path><path d="M272 316L371 375L432 272Z" fill="#610911" stroke="#610911"></path><path d="M503 175L471 70L368 208Z" fill="#330809" stroke="#330809"></path><path d="M582 272L585 189L503 175Z" fill="#330809" stroke="#330809"></path><path d="M503 175L606 122L471 70Z" fill="#290605" stroke="#290605"></path><path d="M514 367L519 327L432 272Z" fill="#290605" stroke="#290605"></path><path d="M432 272L519 327L503 175Z" fill="#6c0911" stroke="#6c0911"></path><path d="M471 70L367 71L368 208Z" fill="#3e090c" stroke="#3e090c"></path><path d="M519 327L582 272L503 175Z" fill="#290605" stroke="#290605"></path><path d="M371 375L514 367L432 272Z" fill="#550910" stroke="#550910"></path><path d="M519 327L594 405L582 272Z" fill="#330809" stroke="#330809"></path><path d="M272 316L432 272L368 208Z" fill="#8f0d0d" stroke="#8f0d0d"></path><path d="M690 215L606 122L585 189Z" fill="#3e090c" stroke="#3e090c"></path><path d="M585 189L606 122L503 175Z" fill="#6c0911" stroke="#6c0911"></path><path d="M310 212L272 316L368 208Z" fill="#550910" stroke="#550910"></path><path d="M471 70L406 0L367 71Z" fill="#830b0f" stroke="#830b0f"></path><path d="M495 0L406 0L471 70Z" fill="#6c0911" stroke="#6c0911"></path><path d="M286 0L282 69L367 71Z" fill="#6c0911" stroke="#6c0911"></path><path d="M367 71L282 69L310 212Z" fill="#6c0911" stroke="#6c0911"></path><path d="M310 212L212 278L272 316Z" fill="#550910" stroke="#550910"></path><path d="M603 0L495 0L471 70Z" fill="#49090f" stroke="#49090f"></path><path d="M197 124L211 218L310 212Z" fill="#200000" stroke="#200000"></path><path d="M211 218L212 278L310 212Z" fill="#3e090c" stroke="#3e090c"></path><path d="M272 316L317 417L371 375Z" fill="#550910" stroke="#550910"></path><path d="M371 375L383 487L514 367Z" fill="#200000" stroke="#200000"></path><path d="M198 431L317 417L272 316Z" fill="#200000" stroke="#200000"></path><path d="M697 331L690 215L582 272Z" fill="#3e090c" stroke="#3e090c"></path><path d="M582 272L690 215L585 189Z" fill="#3e090c" stroke="#3e090c"></path><path d="M406 0L286 0L367 71Z" fill="#200000" stroke="#200000"></path><path d="M282 69L197 124L310 212Z" fill="#6c0911" stroke="#6c0911"></path><path d="M196 0L197 124L282 69Z" fill="#550910" stroke="#550910"></path><path d="M211 218L95 195L212 278Z" fill="#830b0f" stroke="#830b0f"></path><path d="M520 505L594 405L514 367Z" fill="#830b0f" stroke="#830b0f"></path><path d="M514 367L594 405L519 327Z" fill="#330809" stroke="#330809"></path><path d="M690 215L672 90L606 122Z" fill="#830b0f" stroke="#830b0f"></path><path d="M606 122L603 0L471 70Z" fill="#780a10" stroke="#780a10"></path><path d="M672 90L603 0L606 122Z" fill="#550910" stroke="#550910"></path><path d="M594 405L672 371L582 272Z" fill="#8f0d0d" stroke="#8f0d0d"></path><path d="M672 371L697 331L582 272Z" fill="#290605" stroke="#290605"></path><path d="M317 417L383 487L371 375Z" fill="#610911" stroke="#610911"></path><path d="M383 487L520 505L514 367Z" fill="#200000" stroke="#200000"></path><path d="M594 405L667 507L672 371Z" fill="#610911" stroke="#610911"></path><path d="M286 0L196 0L282 69Z" fill="#8f0d0d" stroke="#8f0d0d"></path><path d="M196 0L130 91L197 124Z" fill="#8f0d0d" stroke="#8f0d0d"></path><path d="M197 124L95 195L211 218Z" fill="#8f0d0d" stroke="#8f0d0d"></path><path d="M317 417L322 520L383 487Z" fill="#830b0f" stroke="#830b0f"></path><path d="M212 278L198 431L272 316Z" fill="#8f0d0d" stroke="#8f0d0d"></path><path d="M114 376L198 431L212 278Z" fill="#49090f" stroke="#49090f"></path><path d="M697 331L768 276L690 215Z" fill="#6c0911" stroke="#6c0911"></path><path d="M690 215L791 65L672 90Z" fill="#200000" stroke="#200000"></path><path d="M803 377L768 276L697 331Z" fill="#830b0f" stroke="#830b0f"></path><path d="M233 487L322 520L317 417Z" fill="#330809" stroke="#330809"></path><path d="M383 487L467 600L520 505Z" fill="#780a10" stroke="#780a10"></path><path d="M130 91L95 195L197 124Z" fill="#780a10" stroke="#780a10"></path><path d="M198 431L233 487L317 417Z" fill="#49090f" stroke="#49090f"></path><path d="M791 65L731 0L672 90Z" fill="#330809" stroke="#330809"></path><path d="M672 90L731 0L603 0Z" fill="#550910" stroke="#550910"></path><path d="M95 195L97 320L212 278Z" fill="#8f0d0d" stroke="#8f0d0d"></path><path d="M198 431L110 485L233 487Z" fill="#830b0f" stroke="#830b0f"></path><path d="M520 505L613 522L594 405Z" fill="#49090f" stroke="#49090f"></path><path d="M672 371L803 377L697 331Z" fill="#6c0911" stroke="#6c0911"></path><path d="M633 600L613 522L520 505Z" fill="#330809" stroke="#330809"></path><path d="M97 320L114 376L212 278Z" fill="#830b0f" stroke="#830b0f"></path><path d="M826 224L791 65L690 215Z" fill="#290605" stroke="#290605"></path><path d="M613 522L667 507L594 405Z" fill="#3e090c" stroke="#3e090c"></path><path d="M0 121L0 224L95 195Z" fill="#290605" stroke="#290605"></path><path d="M196 0L110 0L130 91Z" fill="#8f0d0d" stroke="#8f0d0d"></path><path d="M900 272L826 224L768 276Z" fill="#49090f" stroke="#49090f"></path><path d="M768 276L826 224L690 215Z" fill="#6c0911" stroke="#6c0911"></path><path d="M378 600L383 487L322 520Z" fill="#200000" stroke="#200000"></path><path d="M378 600L467 600L383 487Z" fill="#330809" stroke="#330809"></path><path d="M613 522L633 600L667 507Z" fill="#830b0f" stroke="#830b0f"></path><path d="M278 600L378 600L322 520Z" fill="#780a10" stroke="#780a10"></path><path d="M667 507L803 377L672 371Z" fill="#8f0d0d" stroke="#8f0d0d"></path><path d="M209 600L278 600L233 487Z" fill="#610911" stroke="#610911"></path><path d="M233 487L278 600L322 520Z" fill="#6c0911" stroke="#6c0911"></path><path d="M114 376L110 485L198 431Z" fill="#6c0911" stroke="#6c0911"></path><path d="M0 377L110 485L114 376Z" fill="#780a10" stroke="#780a10"></path><path d="M95 195L0 224L97 320Z" fill="#8f0d0d" stroke="#8f0d0d"></path><path d="M97 320L0 377L114 376Z" fill="#330809" stroke="#330809"></path><path d="M0 121L95 195L130 91Z" fill="#610911" stroke="#610911"></path><path d="M900 130L830 0L791 65Z" fill="#330809" stroke="#330809"></path><path d="M791 65L830 0L731 0Z" fill="#290605" stroke="#290605"></path><path d="M467 600L633 600L520 505Z" fill="#830b0f" stroke="#830b0f"></path><path d="M667 507L771 532L803 377Z" fill="#49090f" stroke="#49090f"></path><path d="M0 0L0 121L130 91Z" fill="#780a10" stroke="#780a10"></path><path d="M0 224L0 311L97 320Z" fill="#8f0d0d" stroke="#8f0d0d"></path><path d="M110 485L209 600L233 487Z" fill="#8f0d0d" stroke="#8f0d0d"></path><path d="M900 272L900 228L826 224Z" fill="#550910" stroke="#550910"></path><path d="M826 224L900 130L791 65Z" fill="#6c0911" stroke="#6c0911"></path><path d="M803 377L900 272L768 276Z" fill="#330809" stroke="#330809"></path><path d="M900 434L900 272L803 377Z" fill="#3e090c" stroke="#3e090c"></path><path d="M900 228L900 130L826 224Z" fill="#8f0d0d" stroke="#8f0d0d"></path><path d="M707 600L771 532L667 507Z" fill="#6c0911" stroke="#6c0911"></path><path d="M0 311L0 377L97 320Z" fill="#3e090c" stroke="#3e090c"></path><path d="M110 485L106 600L209 600Z" fill="#8f0d0d" stroke="#8f0d0d"></path><path d="M633 600L707 600L667 507Z" fill="#200000" stroke="#200000"></path><path d="M110 0L0 0L130 91Z" fill="#550910" stroke="#550910"></path><path d="M900 130L900 0L830 0Z" fill="#8f0d0d" stroke="#8f0d0d"></path><path d="M900 481L803 377L771 532Z" fill="#8f0d0d" stroke="#8f0d0d"></path><path d="M900 481L900 434L803 377Z" fill="#8f0d0d" stroke="#8f0d0d"></path><path d="M0 515L106 600L110 485Z" fill="#330809" stroke="#330809"></path><path d="M0 377L0 515L110 485Z" fill="#830b0f" stroke="#830b0f"></path><path d="M707 600L801 600L771 532Z" fill="#3e090c" stroke="#3e090c"></path><path d="M801 600L900 481L771 532Z" fill="#550910" stroke="#550910"></path><path d="M0 515L0 600L106 600Z" fill="#8f0d0d" stroke="#8f0d0d"></path><path d="M801 600L900 600L900 481Z" fill="#6c0911" stroke="#6c0911"></path></g></svg>